PathFileType   4   (X/Y/Z)
DataRate	CameraRate	NumFrames	NumMarkers	Units	OrigDataRate	OrigDataStartFrame	OrigNumFrames
120.0	120.0	4	37	mm	120.0	1	156
Frame#	Time	midhip	hip_r	hip_l	knee_r	knee_l	ankle_r	ankle_l	midasis	asis_r	asis_l	psis_r	psis_l	epicondLat_r	epicondLat_l	epicondMed_r	epicondMed_l	malleolusLat_r	malleolusLat_l	malleolusMedv_r	malleolusMedv_l	neck	subclavicle_r	subclavicle_l	sternalnotch	xyphoidprocess	thighwand_r	thighwand_l	upperleg1_r	upperleg1_l	upperleg2_r	upperleg2_l	shankwand_r	shankwand_l	lowerleg1_r	lowerleg1_l	toe_r	toe_l
 	 	X1	Y1	Z1	X2	Y2	Z2	X3	Y3	Z3	X4	Y4	Z4	X5	Y5	Z5	X6	Y6	Z6	X7	Y7	Z7	X8	Y8	Z8	X9	Y9	Z9	X10	Y10	Z10	X11	Y11	Z11	X12	Y12	Z12	X13	Y13	Z13	X14	Y14	Z14	X15	Y15	Z15	X16	Y16	Z16	X17	Y17	Z17	X18	Y18	Z18	X19	Y19	Z19	X20	Y20	Z20	X21	Y21	Z21	X22	Y22	Z22	X23	Y23	Z23	X24	Y24	Z24	X25	Y25	Z25	X26	Y26	Z26	X27	Y27	Z27	X28	Y28	Z28	X29	Y29	Z29	X30	Y30	Z30	X31	Y31	Z31	X32	Y32	Z32	X33	Y33	Z33	X34	Y34	Z34	X35	Y35	Z35	X36	Y36	Z36	X37	Y37	Z37

	1	0.26667	1409.753	825.125	-275.052	1397.429	799.424	-199.318	1385.813	809.662	-350.656	1361.518	428.491	-156.835	1470.950	431.616	-337.391	1085.504	173.359	-143.413	1474.087	68.884	-312.742	1484.479	875.421	-274.264	1489.610	867.500	-156.816	1479.348	883.341	-391.711	1293.201	940.048	-230.775	1286.814	938.109	-284.901	1366.761	434.562	-99.393	1476.989	430.952	-395.072	1373.875	420.896	-220.526	1484.155	443.444	-277.819	1073.842	187.839	-107.997	1459.505	66.233	-349.895	1100.963	168.411	-174.460	1484.198	78.730	-288.210	1351.587	1373.340	-265.897	1482.595	1314.895	-224.375	1476.655	1309.430	-330.481	1476.020	1308.760	-276.173	1517.787	1240.398	-279.168	1542.961	544.650	-190.743	1486.941	559.547	-489.110	1483.146	607.032	-138.964	1419.083	601.524	-430.936	1463.197	521.902	-131.770	1444.004	518.608	-415.651	1124.701	257.849	-41.310	1565.614	196.002	-317.164	1134.198	257.209	-84.159	1524.145	192.510	-325.252	1093.055	70.638	-128.832	1577.891	42.157	-348.180
	2	0.27500	1414.654	824.932	-277.041	1403.358	800.133	-200.257	1391.324	809.973	-351.588	1373.569	428.364	-157.468	1474.178	431.568	-338.075	1096.105	176.243	-145.146	1473.968	68.904	-312.780	1490.276	875.832	-275.655	1495.737	868.217	-158.080	1484.815	883.448	-393.230	1299.214	940.691	-231.723	1292.507	938.833	-285.858	1378.702	434.564	-100.029	1479.967	430.775	-395.780	1387.136	418.448	-219.489	1485.587	442.509	-278.640	1084.682	190.553	-109.583	1459.523	66.317	-349.991	1111.519	171.969	-176.470	1484.613	78.531	-288.456	1357.370	1373.981	-267.712	1489.045	1315.515	-225.661	1482.704	1309.967	-332.110	1482.279	1309.368	-277.736	1524.085	1241.005	-280.723	1553.322	546.951	-191.412	1490.278	559.263	-490.066	1492.021	608.354	-140.275	1423.231	601.350	-431.669	1474.009	522.370	-131.995	1446.664	518.693	-416.526	1135.955	259.251	-42.460	1566.723	195.308	-317.030	1145.090	259.079	-84.891	1525.235	191.545	-324.678	1101.485	73.079	-129.800	1577.953	42.034	-348.217
	3	0.28333	1419.043	824.232	-278.496	1409.164	800.796	-201.183	1396.714	810.266	-352.505	1385.679	428.258	-158.111	1477.391	431.511	-338.688	1107.052	178.931	-147.080	1473.801	68.918	-312.774	1495.959	876.199	-277.019	1501.749	868.868	-159.325	1490.168	883.530	-394.712	1305.135	941.305	-232.610	1298.131	939.516	-286.748	1390.711	434.582	-100.676	1482.931	430.585	-396.415	1401.072	415.923	-218.378	1487.896	443.368	-278.189	1095.850	193.029	-111.362	1459.559	66.394	-350.068	1122.451	174.804	-178.536	1484.846	78.373	-288.617	1363.597	1374.394	-269.212	1494.915	1315.837	-226.821	1488.921	1310.657	-333.138	1488.505	1309.965	-279.259	1530.106	1241.502	-281.937	1563.585	549.349	-192.115	1493.562	558.987	-490.971	1500.880	609.683	-141.581	1427.315	601.357	-433.109	1485.223	523.026	-132.268	1450.006	518.177	-416.925	1147.447	260.383	-43.787	1567.707	194.638	-316.689	1156.291	260.299	-85.954	1526.393	190.451	-324.323	1110.883	75.407	-130.696	1578.003	41.950	-348.243
	4	0.29167	1424.407	824.487	-279.605	1414.872	801.396	-202.120	1402.006	810.545	-353.426	1397.858	428.200	-158.768	1480.544	431.450	-339.242	1118.308	181.408	-149.185	1473.644	68.920	-312.731	1501.543	876.526	-278.367	1507.661	869.443	-160.577	1495.425	883.608	-396.156	1310.950	941.889	-233.447	1303.676	940.144	-287.576	1402.799	434.646	-101.340	1485.836	430.385	-396.990	1413.036	415.695	-218.163	1490.748	444.591	-277.889	1107.316	195.253	-113.303	1459.621	66.453	-350.111	1133.520	177.035	-180.729	1484.759	78.365	-288.618	1370.224	1374.789	-270.219	1500.946	1316.224	-228.303	1495.141	1311.429	-334.372	1494.674	1310.522	-280.703	1536.202	1242.071	-283.480	1573.742	551.823	-192.868	1496.770	558.719	-491.827	1510.266	610.990	-142.402	1430.861	601.843	-434.360	1495.914	524.498	-132.730	1453.319	517.883	-417.232	1159.174	261.239	-45.284	1568.583	193.976	-316.272	1167.987	261.270	-87.611	1526.575	189.435	-324.170	1121.333	77.594	-131.509	1578.042	41.902	-348.264
